<mxfile host="app.diagrams.net" modified="2023-06-13T07:31:31.321Z" agent="Mozilla/5.0 (Macintosh; Intel Mac OS X 10_15_7) AppleWebKit/605.1.15 (KHTML, like Gecko) Version/14.1.1 Safari/605.1.15" version="21.3.8" etag="BNeOlQnPgX2ii73bJZjY" type="github">
  <diagram name="第 1 页" id="MTqGPW5jM1Rfsn0F7F28">
    <mxGraphModel>
      <root>
        <mxCell id="0" />
        <mxCell id="1" parent="0" />
      </root>
    </mxGraphModel>
  </diagram>
</mxfile>
